<svg id="Group_1" data-name="Group 1" xmlns="http://www.w3.org/2000/svg" xmlns:xlink="http://www.w3.org/1999/xlink" width="1920" height="1080.5" viewBox="0 0 1920 1080.5">
  <defs>
    <clipPath id="clip-path">
      <rect width="1920" height="1080" fill="none"/>
    </clipPath>
  </defs>
  <rect id="Rectangle_1" data-name="Rectangle 1" width="451" height="1080" transform="translate(163)" fill="#2d2828"/>
  <g id="Repeat_Grid_1" data-name="Repeat Grid 1" transform="translate(0 0.5)" clip-path="url(#clip-path)">
    <g transform="translate(-657 -0.5)">
      <line id="Line_1" data-name="Line 1" y2="1080" transform="translate(657.5 0.5)" fill="none" stroke="#707070" stroke-width="1"/>
    </g>
    <g transform="translate(-636 -0.5)">
      <line id="Line_1-2" data-name="Line 1" y2="1080" transform="translate(657.5 0.5)" fill="none" stroke="#707070" stroke-width="1"/>
    </g>
    <g transform="translate(-615 -0.5)">
      <line id="Line_1-3" data-name="Line 1" y2="1080" transform="translate(657.5 0.5)" fill="none" stroke="#707070" stroke-width="1"/>
    </g>
    <g transform="translate(-594 -0.5)">
      <line id="Line_1-4" data-name="Line 1" y2="1080" transform="translate(657.5 0.5)" fill="none" stroke="#707070" stroke-width="1"/>
    </g>
    <g transform="translate(-573 -0.5)">
      <line id="Line_1-5" data-name="Line 1" y2="1080" transform="translate(657.5 0.5)" fill="none" stroke="#707070" stroke-width="1"/>
    </g>
    <g transform="translate(-552 -0.5)">
      <line id="Line_1-6" data-name="Line 1" y2="1080" transform="translate(657.5 0.5)" fill="none" stroke="#707070" stroke-width="1"/>
    </g>
    <g transform="translate(-531 -0.5)">
      <line id="Line_1-7" data-name="Line 1" y2="1080" transform="translate(657.5 0.5)" fill="none" stroke="#707070" stroke-width="1"/>
    </g>
    <g transform="translate(-510 -0.5)">
      <line id="Line_1-8" data-name="Line 1" y2="1080" transform="translate(657.5 0.5)" fill="none" stroke="#707070" stroke-width="1"/>
    </g>
    <g transform="translate(-489 -0.5)">
      <line id="Line_1-9" data-name="Line 1" y2="1080" transform="translate(657.5 0.5)" fill="none" stroke="#707070" stroke-width="1"/>
    </g>
    <g transform="translate(-468 -0.5)">
      <line id="Line_1-10" data-name="Line 1" y2="1080" transform="translate(657.5 0.5)" fill="none" stroke="#707070" stroke-width="1"/>
    </g>
    <g transform="translate(-447 -0.5)">
      <line id="Line_1-11" data-name="Line 1" y2="1080" transform="translate(657.5 0.5)" fill="none" stroke="#707070" stroke-width="1"/>
    </g>
    <g transform="translate(-426 -0.5)">
      <line id="Line_1-12" data-name="Line 1" y2="1080" transform="translate(657.5 0.5)" fill="none" stroke="#707070" stroke-width="1"/>
    </g>
    <g transform="translate(-405 -0.5)">
      <line id="Line_1-13" data-name="Line 1" y2="1080" transform="translate(657.5 0.5)" fill="none" stroke="#707070" stroke-width="1"/>
    </g>
    <g transform="translate(-384 -0.5)">
      <line id="Line_1-14" data-name="Line 1" y2="1080" transform="translate(657.5 0.5)" fill="none" stroke="#707070" stroke-width="1"/>
    </g>
    <g transform="translate(-363 -0.5)">
      <line id="Line_1-15" data-name="Line 1" y2="1080" transform="translate(657.5 0.5)" fill="none" stroke="#707070" stroke-width="1"/>
    </g>
    <g transform="translate(-342 -0.5)">
      <line id="Line_1-16" data-name="Line 1" y2="1080" transform="translate(657.5 0.5)" fill="none" stroke="#707070" stroke-width="1"/>
    </g>
    <g transform="translate(-321 -0.5)">
      <line id="Line_1-17" data-name="Line 1" y2="1080" transform="translate(657.5 0.5)" fill="none" stroke="#707070" stroke-width="1"/>
    </g>
    <g transform="translate(-300 -0.5)">
      <line id="Line_1-18" data-name="Line 1" y2="1080" transform="translate(657.5 0.5)" fill="none" stroke="#707070" stroke-width="1"/>
    </g>
    <g transform="translate(-279 -0.5)">
      <line id="Line_1-19" data-name="Line 1" y2="1080" transform="translate(657.5 0.5)" fill="none" stroke="#707070" stroke-width="1"/>
    </g>
    <g transform="translate(-258 -0.5)">
      <line id="Line_1-20" data-name="Line 1" y2="1080" transform="translate(657.5 0.5)" fill="none" stroke="#707070" stroke-width="1"/>
    </g>
    <g transform="translate(-237 -0.5)">
      <line id="Line_1-21" data-name="Line 1" y2="1080" transform="translate(657.5 0.5)" fill="none" stroke="#707070" stroke-width="1"/>
    </g>
    <g transform="translate(-216 -0.5)">
      <line id="Line_1-22" data-name="Line 1" y2="1080" transform="translate(657.5 0.5)" fill="none" stroke="#707070" stroke-width="1"/>
    </g>
    <g transform="translate(-195 -0.5)">
      <line id="Line_1-23" data-name="Line 1" y2="1080" transform="translate(657.5 0.5)" fill="none" stroke="#707070" stroke-width="1"/>
    </g>
    <g transform="translate(-174 -0.5)">
      <line id="Line_1-24" data-name="Line 1" y2="1080" transform="translate(657.5 0.5)" fill="none" stroke="#707070" stroke-width="1"/>
    </g>
    <g transform="translate(-153 -0.5)">
      <line id="Line_1-25" data-name="Line 1" y2="1080" transform="translate(657.5 0.5)" fill="none" stroke="#707070" stroke-width="1"/>
    </g>
    <g transform="translate(-132 -0.5)">
      <line id="Line_1-26" data-name="Line 1" y2="1080" transform="translate(657.5 0.5)" fill="none" stroke="#707070" stroke-width="1"/>
    </g>
    <g transform="translate(-111 -0.5)">
      <line id="Line_1-27" data-name="Line 1" y2="1080" transform="translate(657.5 0.5)" fill="none" stroke="#707070" stroke-width="1"/>
    </g>
    <g transform="translate(-90 -0.5)">
      <line id="Line_1-28" data-name="Line 1" y2="1080" transform="translate(657.5 0.5)" fill="none" stroke="#707070" stroke-width="1"/>
    </g>
    <g transform="translate(-69 -0.5)">
      <line id="Line_1-29" data-name="Line 1" y2="1080" transform="translate(657.5 0.5)" fill="none" stroke="#707070" stroke-width="1"/>
    </g>
    <g transform="translate(-48 -0.5)">
      <line id="Line_1-30" data-name="Line 1" y2="1080" transform="translate(657.5 0.5)" fill="none" stroke="#707070" stroke-width="1"/>
    </g>
    <g transform="translate(-27 -0.5)">
      <line id="Line_1-31" data-name="Line 1" y2="1080" transform="translate(657.5 0.5)" fill="none" stroke="#707070" stroke-width="1"/>
    </g>
    <g transform="translate(-6 -0.5)">
      <line id="Line_1-32" data-name="Line 1" y2="1080" transform="translate(657.5 0.5)" fill="none" stroke="#707070" stroke-width="1"/>
    </g>
    <g transform="translate(15 -0.5)">
      <line id="Line_1-33" data-name="Line 1" y2="1080" transform="translate(657.5 0.5)" fill="none" stroke="#707070" stroke-width="1"/>
    </g>
    <g transform="translate(36 -0.5)">
      <line id="Line_1-34" data-name="Line 1" y2="1080" transform="translate(657.5 0.5)" fill="none" stroke="#707070" stroke-width="1"/>
    </g>
    <g transform="translate(57 -0.5)">
      <line id="Line_1-35" data-name="Line 1" y2="1080" transform="translate(657.5 0.5)" fill="none" stroke="#707070" stroke-width="1"/>
    </g>
    <g transform="translate(78 -0.5)">
      <line id="Line_1-36" data-name="Line 1" y2="1080" transform="translate(657.5 0.5)" fill="none" stroke="#707070" stroke-width="1"/>
    </g>
    <g transform="translate(99 -0.5)">
      <line id="Line_1-37" data-name="Line 1" y2="1080" transform="translate(657.5 0.5)" fill="none" stroke="#707070" stroke-width="1"/>
    </g>
    <g transform="translate(120 -0.5)">
      <line id="Line_1-38" data-name="Line 1" y2="1080" transform="translate(657.5 0.5)" fill="none" stroke="#707070" stroke-width="1"/>
    </g>
    <g transform="translate(141 -0.5)">
      <line id="Line_1-39" data-name="Line 1" y2="1080" transform="translate(657.5 0.5)" fill="none" stroke="#707070" stroke-width="1"/>
    </g>
    <g transform="translate(162 -0.5)">
      <line id="Line_1-40" data-name="Line 1" y2="1080" transform="translate(657.5 0.5)" fill="none" stroke="#707070" stroke-width="1"/>
    </g>
    <g transform="translate(183 -0.5)">
      <line id="Line_1-41" data-name="Line 1" y2="1080" transform="translate(657.5 0.5)" fill="none" stroke="#707070" stroke-width="1"/>
    </g>
    <g transform="translate(204 -0.5)">
      <line id="Line_1-42" data-name="Line 1" y2="1080" transform="translate(657.5 0.5)" fill="none" stroke="#707070" stroke-width="1"/>
    </g>
    <g transform="translate(225 -0.5)">
      <line id="Line_1-43" data-name="Line 1" y2="1080" transform="translate(657.5 0.5)" fill="none" stroke="#707070" stroke-width="1"/>
    </g>
    <g transform="translate(246 -0.5)">
      <line id="Line_1-44" data-name="Line 1" y2="1080" transform="translate(657.5 0.5)" fill="none" stroke="#707070" stroke-width="1"/>
    </g>
    <g transform="translate(267 -0.5)">
      <line id="Line_1-45" data-name="Line 1" y2="1080" transform="translate(657.5 0.5)" fill="none" stroke="#707070" stroke-width="1"/>
    </g>
    <g transform="translate(288 -0.5)">
      <line id="Line_1-46" data-name="Line 1" y2="1080" transform="translate(657.5 0.5)" fill="none" stroke="#707070" stroke-width="1"/>
    </g>
    <g transform="translate(309 -0.5)">
      <line id="Line_1-47" data-name="Line 1" y2="1080" transform="translate(657.5 0.5)" fill="none" stroke="#707070" stroke-width="1"/>
    </g>
    <g transform="translate(330 -0.5)">
      <line id="Line_1-48" data-name="Line 1" y2="1080" transform="translate(657.5 0.5)" fill="none" stroke="#707070" stroke-width="1"/>
    </g>
    <g transform="translate(351 -0.5)">
      <line id="Line_1-49" data-name="Line 1" y2="1080" transform="translate(657.5 0.5)" fill="none" stroke="#707070" stroke-width="1"/>
    </g>
    <g transform="translate(372 -0.5)">
      <line id="Line_1-50" data-name="Line 1" y2="1080" transform="translate(657.5 0.5)" fill="none" stroke="#707070" stroke-width="1"/>
    </g>
    <g transform="translate(393 -0.5)">
      <line id="Line_1-51" data-name="Line 1" y2="1080" transform="translate(657.5 0.5)" fill="none" stroke="#707070" stroke-width="1"/>
    </g>
    <g transform="translate(414 -0.5)">
      <line id="Line_1-52" data-name="Line 1" y2="1080" transform="translate(657.5 0.5)" fill="none" stroke="#707070" stroke-width="1"/>
    </g>
    <g transform="translate(435 -0.5)">
      <line id="Line_1-53" data-name="Line 1" y2="1080" transform="translate(657.5 0.5)" fill="none" stroke="#707070" stroke-width="1"/>
    </g>
    <g transform="translate(456 -0.5)">
      <line id="Line_1-54" data-name="Line 1" y2="1080" transform="translate(657.5 0.5)" fill="none" stroke="#707070" stroke-width="1"/>
    </g>
    <g transform="translate(477 -0.5)">
      <line id="Line_1-55" data-name="Line 1" y2="1080" transform="translate(657.5 0.5)" fill="none" stroke="#707070" stroke-width="1"/>
    </g>
    <g transform="translate(498 -0.5)">
      <line id="Line_1-56" data-name="Line 1" y2="1080" transform="translate(657.5 0.5)" fill="none" stroke="#707070" stroke-width="1"/>
    </g>
    <g transform="translate(519 -0.5)">
      <line id="Line_1-57" data-name="Line 1" y2="1080" transform="translate(657.5 0.5)" fill="none" stroke="#707070" stroke-width="1"/>
    </g>
    <g transform="translate(540 -0.5)">
      <line id="Line_1-58" data-name="Line 1" y2="1080" transform="translate(657.5 0.5)" fill="none" stroke="#707070" stroke-width="1"/>
    </g>
    <g transform="translate(561 -0.5)">
      <line id="Line_1-59" data-name="Line 1" y2="1080" transform="translate(657.5 0.5)" fill="none" stroke="#707070" stroke-width="1"/>
    </g>
    <g transform="translate(582 -0.5)">
      <line id="Line_1-60" data-name="Line 1" y2="1080" transform="translate(657.5 0.5)" fill="none" stroke="#707070" stroke-width="1"/>
    </g>
    <g transform="translate(603 -0.5)">
      <line id="Line_1-61" data-name="Line 1" y2="1080" transform="translate(657.5 0.5)" fill="none" stroke="#707070" stroke-width="1"/>
    </g>
    <g transform="translate(624 -0.5)">
      <line id="Line_1-62" data-name="Line 1" y2="1080" transform="translate(657.5 0.5)" fill="none" stroke="#707070" stroke-width="1"/>
    </g>
    <g transform="translate(645 -0.5)">
      <line id="Line_1-63" data-name="Line 1" y2="1080" transform="translate(657.5 0.5)" fill="none" stroke="#707070" stroke-width="1"/>
    </g>
    <g transform="translate(666 -0.5)">
      <line id="Line_1-64" data-name="Line 1" y2="1080" transform="translate(657.5 0.5)" fill="none" stroke="#707070" stroke-width="1"/>
    </g>
    <g transform="translate(687 -0.5)">
      <line id="Line_1-65" data-name="Line 1" y2="1080" transform="translate(657.5 0.5)" fill="none" stroke="#707070" stroke-width="1"/>
    </g>
    <g transform="translate(708 -0.5)">
      <line id="Line_1-66" data-name="Line 1" y2="1080" transform="translate(657.5 0.5)" fill="none" stroke="#707070" stroke-width="1"/>
    </g>
    <g transform="translate(729 -0.5)">
      <line id="Line_1-67" data-name="Line 1" y2="1080" transform="translate(657.5 0.5)" fill="none" stroke="#707070" stroke-width="1"/>
    </g>
    <g transform="translate(750 -0.5)">
      <line id="Line_1-68" data-name="Line 1" y2="1080" transform="translate(657.5 0.5)" fill="none" stroke="#707070" stroke-width="1"/>
    </g>
    <g transform="translate(771 -0.5)">
      <line id="Line_1-69" data-name="Line 1" y2="1080" transform="translate(657.5 0.5)" fill="none" stroke="#707070" stroke-width="1"/>
    </g>
    <g transform="translate(792 -0.5)">
      <line id="Line_1-70" data-name="Line 1" y2="1080" transform="translate(657.5 0.5)" fill="none" stroke="#707070" stroke-width="1"/>
    </g>
    <g transform="translate(813 -0.5)">
      <line id="Line_1-71" data-name="Line 1" y2="1080" transform="translate(657.5 0.5)" fill="none" stroke="#707070" stroke-width="1"/>
    </g>
    <g transform="translate(834 -0.5)">
      <line id="Line_1-72" data-name="Line 1" y2="1080" transform="translate(657.5 0.5)" fill="none" stroke="#707070" stroke-width="1"/>
    </g>
    <g transform="translate(855 -0.5)">
      <line id="Line_1-73" data-name="Line 1" y2="1080" transform="translate(657.5 0.5)" fill="none" stroke="#707070" stroke-width="1"/>
    </g>
    <g transform="translate(876 -0.5)">
      <line id="Line_1-74" data-name="Line 1" y2="1080" transform="translate(657.5 0.5)" fill="none" stroke="#707070" stroke-width="1"/>
    </g>
    <g transform="translate(897 -0.5)">
      <line id="Line_1-75" data-name="Line 1" y2="1080" transform="translate(657.5 0.5)" fill="none" stroke="#707070" stroke-width="1"/>
    </g>
    <g transform="translate(918 -0.5)">
      <line id="Line_1-76" data-name="Line 1" y2="1080" transform="translate(657.5 0.5)" fill="none" stroke="#707070" stroke-width="1"/>
    </g>
    <g transform="translate(939 -0.5)">
      <line id="Line_1-77" data-name="Line 1" y2="1080" transform="translate(657.5 0.5)" fill="none" stroke="#707070" stroke-width="1"/>
    </g>
    <g transform="translate(960 -0.5)">
      <line id="Line_1-78" data-name="Line 1" y2="1080" transform="translate(657.5 0.5)" fill="none" stroke="#707070" stroke-width="1"/>
    </g>
    <g transform="translate(981 -0.5)">
      <line id="Line_1-79" data-name="Line 1" y2="1080" transform="translate(657.5 0.5)" fill="none" stroke="#707070" stroke-width="1"/>
    </g>
    <g transform="translate(1002 -0.5)">
      <line id="Line_1-80" data-name="Line 1" y2="1080" transform="translate(657.5 0.5)" fill="none" stroke="#707070" stroke-width="1"/>
    </g>
    <g transform="translate(1023 -0.5)">
      <line id="Line_1-81" data-name="Line 1" y2="1080" transform="translate(657.5 0.5)" fill="none" stroke="#707070" stroke-width="1"/>
    </g>
    <g transform="translate(1044 -0.5)">
      <line id="Line_1-82" data-name="Line 1" y2="1080" transform="translate(657.5 0.5)" fill="none" stroke="#707070" stroke-width="1"/>
    </g>
    <g transform="translate(1065 -0.5)">
      <line id="Line_1-83" data-name="Line 1" y2="1080" transform="translate(657.5 0.5)" fill="none" stroke="#707070" stroke-width="1"/>
    </g>
    <g transform="translate(1086 -0.5)">
      <line id="Line_1-84" data-name="Line 1" y2="1080" transform="translate(657.5 0.5)" fill="none" stroke="#707070" stroke-width="1"/>
    </g>
    <g transform="translate(1107 -0.5)">
      <line id="Line_1-85" data-name="Line 1" y2="1080" transform="translate(657.5 0.5)" fill="none" stroke="#707070" stroke-width="1"/>
    </g>
    <g transform="translate(1128 -0.5)">
      <line id="Line_1-86" data-name="Line 1" y2="1080" transform="translate(657.5 0.5)" fill="none" stroke="#707070" stroke-width="1"/>
    </g>
    <g transform="translate(1149 -0.5)">
      <line id="Line_1-87" data-name="Line 1" y2="1080" transform="translate(657.5 0.5)" fill="none" stroke="#707070" stroke-width="1"/>
    </g>
    <g transform="translate(1170 -0.5)">
      <line id="Line_1-88" data-name="Line 1" y2="1080" transform="translate(657.5 0.5)" fill="none" stroke="#707070" stroke-width="1"/>
    </g>
    <g transform="translate(1191 -0.5)">
      <line id="Line_1-89" data-name="Line 1" y2="1080" transform="translate(657.5 0.5)" fill="none" stroke="#707070" stroke-width="1"/>
    </g>
    <g transform="translate(1212 -0.5)">
      <line id="Line_1-90" data-name="Line 1" y2="1080" transform="translate(657.5 0.5)" fill="none" stroke="#707070" stroke-width="1"/>
    </g>
    <g transform="translate(1233 -0.5)">
      <line id="Line_1-91" data-name="Line 1" y2="1080" transform="translate(657.5 0.5)" fill="none" stroke="#707070" stroke-width="1"/>
    </g>
    <g transform="translate(1254 -0.5)">
      <line id="Line_1-92" data-name="Line 1" y2="1080" transform="translate(657.5 0.5)" fill="none" stroke="#707070" stroke-width="1"/>
    </g>
  </g>
</svg>
