<svg id="Group_8" data-name="Group 8" xmlns="http://www.w3.org/2000/svg" width="887" height="1083" viewBox="0 0 887 1083">
  <rect id="Rectangle_1" data-name="Rectangle 1" width="312" height="1083" transform="translate(85)" fill="#596c68"/>
  <g id="Repeat_Grid_5" data-name="Repeat Grid 5" transform="translate(85)" opacity="0.14">
    <g transform="translate(-410 -0.499)">
      <line id="Line_14" data-name="Line 14" x2="2" y2="1080" transform="translate(410.5 0.5)" fill="none" stroke="#e3d9ca" stroke-width="1"/>
    </g>
    <g transform="translate(-387 -0.499)">
      <line id="Line_14-2" data-name="Line 14" x2="2" y2="1080" transform="translate(410.5 0.5)" fill="none" stroke="#e3d9ca" stroke-width="1"/>
    </g>
    <g transform="translate(-364 -0.499)">
      <line id="Line_14-3" data-name="Line 14" x2="2" y2="1080" transform="translate(410.5 0.5)" fill="none" stroke="#e3d9ca" stroke-width="1"/>
    </g>
    <g transform="translate(-341 -0.499)">
      <line id="Line_14-4" data-name="Line 14" x2="2" y2="1080" transform="translate(410.5 0.5)" fill="none" stroke="#e3d9ca" stroke-width="1"/>
    </g>
    <g transform="translate(-318 -0.499)">
      <line id="Line_14-5" data-name="Line 14" x2="2" y2="1080" transform="translate(410.5 0.5)" fill="none" stroke="#e3d9ca" stroke-width="1"/>
    </g>
    <g transform="translate(-295 -0.499)">
      <line id="Line_14-6" data-name="Line 14" x2="2" y2="1080" transform="translate(410.5 0.5)" fill="none" stroke="#e3d9ca" stroke-width="1"/>
    </g>
    <g transform="translate(-272 -0.499)">
      <line id="Line_14-7" data-name="Line 14" x2="2" y2="1080" transform="translate(410.5 0.5)" fill="none" stroke="#e3d9ca" stroke-width="1"/>
    </g>
    <g transform="translate(-249 -0.499)">
      <line id="Line_14-8" data-name="Line 14" x2="2" y2="1080" transform="translate(410.5 0.5)" fill="none" stroke="#e3d9ca" stroke-width="1"/>
    </g>
    <g transform="translate(-226 -0.499)">
      <line id="Line_14-9" data-name="Line 14" x2="2" y2="1080" transform="translate(410.5 0.5)" fill="none" stroke="#e3d9ca" stroke-width="1"/>
    </g>
    <g transform="translate(-203 -0.499)">
      <line id="Line_14-10" data-name="Line 14" x2="2" y2="1080" transform="translate(410.5 0.5)" fill="none" stroke="#e3d9ca" stroke-width="1"/>
    </g>
    <g transform="translate(-180 -0.499)">
      <line id="Line_14-11" data-name="Line 14" x2="2" y2="1080" transform="translate(410.5 0.5)" fill="none" stroke="#e3d9ca" stroke-width="1"/>
    </g>
    <g transform="translate(-157 -0.499)">
      <line id="Line_14-12" data-name="Line 14" x2="2" y2="1080" transform="translate(410.5 0.5)" fill="none" stroke="#e3d9ca" stroke-width="1"/>
    </g>
    <g transform="translate(-134 -0.499)">
      <line id="Line_14-13" data-name="Line 14" x2="2" y2="1080" transform="translate(410.5 0.5)" fill="none" stroke="#e3d9ca" stroke-width="1"/>
    </g>
    <g transform="translate(-111 -0.499)">
      <line id="Line_14-14" data-name="Line 14" x2="2" y2="1080" transform="translate(410.5 0.5)" fill="none" stroke="#e3d9ca" stroke-width="1"/>
    </g>
  </g>
  <g id="Repeat_Grid_2" data-name="Repeat Grid 2" transform="translate(397 0.499)" opacity="0.14">
    <g transform="translate(-410 -0.499)">
      <line id="Line_14-15" data-name="Line 14" x2="2" y2="1080" transform="translate(410.5 0.5)" fill="none" stroke="#596c68" stroke-width="1"/>
    </g>
    <g transform="translate(-387 -0.499)">
      <line id="Line_14-16" data-name="Line 14" x2="2" y2="1080" transform="translate(410.5 0.5)" fill="none" stroke="#596c68" stroke-width="1"/>
    </g>
    <g transform="translate(-364 -0.499)">
      <line id="Line_14-17" data-name="Line 14" x2="2" y2="1080" transform="translate(410.5 0.5)" fill="none" stroke="#596c68" stroke-width="1"/>
    </g>
    <g transform="translate(-341 -0.499)">
      <line id="Line_14-18" data-name="Line 14" x2="2" y2="1080" transform="translate(410.5 0.5)" fill="none" stroke="#596c68" stroke-width="1"/>
    </g>
    <g transform="translate(-318 -0.499)">
      <line id="Line_14-19" data-name="Line 14" x2="2" y2="1080" transform="translate(410.5 0.5)" fill="none" stroke="#596c68" stroke-width="1"/>
    </g>
    <g transform="translate(-295 -0.499)">
      <line id="Line_14-20" data-name="Line 14" x2="2" y2="1080" transform="translate(410.5 0.5)" fill="none" stroke="#596c68" stroke-width="1"/>
    </g>
    <g transform="translate(-272 -0.499)">
      <line id="Line_14-21" data-name="Line 14" x2="2" y2="1080" transform="translate(410.5 0.5)" fill="none" stroke="#596c68" stroke-width="1"/>
    </g>
    <g transform="translate(-249 -0.499)">
      <line id="Line_14-22" data-name="Line 14" x2="2" y2="1080" transform="translate(410.5 0.5)" fill="none" stroke="#596c68" stroke-width="1"/>
    </g>
    <g transform="translate(-226 -0.499)">
      <line id="Line_14-23" data-name="Line 14" x2="2" y2="1080" transform="translate(410.5 0.5)" fill="none" stroke="#596c68" stroke-width="1"/>
    </g>
    <g transform="translate(-203 -0.499)">
      <line id="Line_14-24" data-name="Line 14" x2="2" y2="1080" transform="translate(410.5 0.5)" fill="none" stroke="#596c68" stroke-width="1"/>
    </g>
    <g transform="translate(-180 -0.499)">
      <line id="Line_14-25" data-name="Line 14" x2="2" y2="1080" transform="translate(410.5 0.5)" fill="none" stroke="#596c68" stroke-width="1"/>
    </g>
    <g transform="translate(-157 -0.499)">
      <line id="Line_14-26" data-name="Line 14" x2="2" y2="1080" transform="translate(410.5 0.5)" fill="none" stroke="#596c68" stroke-width="1"/>
    </g>
    <g transform="translate(-134 -0.499)">
      <line id="Line_14-27" data-name="Line 14" x2="2" y2="1080" transform="translate(410.5 0.5)" fill="none" stroke="#596c68" stroke-width="1"/>
    </g>
    <g transform="translate(-111 -0.499)">
      <line id="Line_14-28" data-name="Line 14" x2="2" y2="1080" transform="translate(410.5 0.5)" fill="none" stroke="#596c68" stroke-width="1"/>
    </g>
    <g transform="translate(-88 -0.499)">
      <line id="Line_14-29" data-name="Line 14" x2="2" y2="1080" transform="translate(410.5 0.5)" fill="none" stroke="#596c68" stroke-width="1"/>
    </g>
    <g transform="translate(-65 -0.499)">
      <line id="Line_14-30" data-name="Line 14" x2="2" y2="1080" transform="translate(410.5 0.5)" fill="none" stroke="#596c68" stroke-width="1"/>
    </g>
    <g transform="translate(-42 -0.499)">
      <line id="Line_14-31" data-name="Line 14" x2="2" y2="1080" transform="translate(410.5 0.5)" fill="none" stroke="#596c68" stroke-width="1"/>
    </g>
    <g transform="translate(-19 -0.499)">
      <line id="Line_14-32" data-name="Line 14" x2="2" y2="1080" transform="translate(410.5 0.5)" fill="none" stroke="#596c68" stroke-width="1"/>
    </g>
    <g transform="translate(4 -0.499)">
      <line id="Line_14-33" data-name="Line 14" x2="2" y2="1080" transform="translate(410.5 0.5)" fill="none" stroke="#596c68" stroke-width="1"/>
    </g>
    <g transform="translate(27 -0.499)">
      <line id="Line_14-34" data-name="Line 14" x2="2" y2="1080" transform="translate(410.5 0.5)" fill="none" stroke="#596c68" stroke-width="1"/>
    </g>
    <g transform="translate(50 -0.499)">
      <line id="Line_14-35" data-name="Line 14" x2="2" y2="1080" transform="translate(410.5 0.5)" fill="none" stroke="#596c68" stroke-width="1"/>
    </g>
    <g transform="translate(73 -0.499)">
      <line id="Line_14-36" data-name="Line 14" x2="2" y2="1080" transform="translate(410.5 0.5)" fill="none" stroke="#596c68" stroke-width="1"/>
    </g>
  </g>
  <g id="Repeat_Grid_3" data-name="Repeat Grid 3" transform="translate(397 0.499)" opacity="0.14">
    <g transform="translate(-410 -0.499)">
      <line id="Line_14-37" data-name="Line 14" x2="2" y2="1080" transform="translate(410.5 0.5)" fill="none" stroke="#596c68" stroke-width="1"/>
    </g>
    <g transform="translate(-387 -0.499)">
      <line id="Line_14-38" data-name="Line 14" x2="2" y2="1080" transform="translate(410.5 0.5)" fill="none" stroke="#596c68" stroke-width="1"/>
    </g>
    <g transform="translate(-364 -0.499)">
      <line id="Line_14-39" data-name="Line 14" x2="2" y2="1080" transform="translate(410.5 0.5)" fill="none" stroke="#596c68" stroke-width="1"/>
    </g>
    <g transform="translate(-341 -0.499)">
      <line id="Line_14-40" data-name="Line 14" x2="2" y2="1080" transform="translate(410.5 0.5)" fill="none" stroke="#596c68" stroke-width="1"/>
    </g>
    <g transform="translate(-318 -0.499)">
      <line id="Line_14-41" data-name="Line 14" x2="2" y2="1080" transform="translate(410.5 0.5)" fill="none" stroke="#596c68" stroke-width="1"/>
    </g>
    <g transform="translate(-295 -0.499)">
      <line id="Line_14-42" data-name="Line 14" x2="2" y2="1080" transform="translate(410.5 0.5)" fill="none" stroke="#596c68" stroke-width="1"/>
    </g>
    <g transform="translate(-272 -0.499)">
      <line id="Line_14-43" data-name="Line 14" x2="2" y2="1080" transform="translate(410.5 0.5)" fill="none" stroke="#596c68" stroke-width="1"/>
    </g>
    <g transform="translate(-249 -0.499)">
      <line id="Line_14-44" data-name="Line 14" x2="2" y2="1080" transform="translate(410.5 0.5)" fill="none" stroke="#596c68" stroke-width="1"/>
    </g>
    <g transform="translate(-226 -0.499)">
      <line id="Line_14-45" data-name="Line 14" x2="2" y2="1080" transform="translate(410.5 0.5)" fill="none" stroke="#596c68" stroke-width="1"/>
    </g>
    <g transform="translate(-203 -0.499)">
      <line id="Line_14-46" data-name="Line 14" x2="2" y2="1080" transform="translate(410.5 0.5)" fill="none" stroke="#596c68" stroke-width="1"/>
    </g>
    <g transform="translate(-180 -0.499)">
      <line id="Line_14-47" data-name="Line 14" x2="2" y2="1080" transform="translate(410.5 0.5)" fill="none" stroke="#596c68" stroke-width="1"/>
    </g>
    <g transform="translate(-157 -0.499)">
      <line id="Line_14-48" data-name="Line 14" x2="2" y2="1080" transform="translate(410.5 0.5)" fill="none" stroke="#596c68" stroke-width="1"/>
    </g>
    <g transform="translate(-134 -0.499)">
      <line id="Line_14-49" data-name="Line 14" x2="2" y2="1080" transform="translate(410.5 0.5)" fill="none" stroke="#596c68" stroke-width="1"/>
    </g>
    <g transform="translate(-111 -0.499)">
      <line id="Line_14-50" data-name="Line 14" x2="2" y2="1080" transform="translate(410.5 0.5)" fill="none" stroke="#596c68" stroke-width="1"/>
    </g>
    <g transform="translate(-88 -0.499)">
      <line id="Line_14-51" data-name="Line 14" x2="2" y2="1080" transform="translate(410.5 0.5)" fill="none" stroke="#596c68" stroke-width="1"/>
    </g>
    <g transform="translate(-65 -0.499)">
      <line id="Line_14-52" data-name="Line 14" x2="2" y2="1080" transform="translate(410.5 0.5)" fill="none" stroke="#596c68" stroke-width="1"/>
    </g>
  </g>
  <g id="Repeat_Grid_4" data-name="Repeat Grid 4" transform="translate(0 0.499)" opacity="0.41">
    <g transform="translate(-410 -0.499)">
      <line id="Line_14-53" data-name="Line 14" x2="2" y2="1080" transform="translate(410.5 0.5)" fill="none" stroke="#596c68" stroke-width="1"/>
    </g>
    <g transform="translate(-387 -0.499)">
      <line id="Line_14-54" data-name="Line 14" x2="2" y2="1080" transform="translate(410.5 0.5)" fill="none" stroke="#596c68" stroke-width="1"/>
    </g>
    <g transform="translate(-364 -0.499)">
      <line id="Line_14-55" data-name="Line 14" x2="2" y2="1080" transform="translate(410.5 0.5)" fill="none" stroke="#596c68" stroke-width="1"/>
    </g>
    <g transform="translate(-341 -0.499)">
      <line id="Line_14-56" data-name="Line 14" x2="2" y2="1080" transform="translate(410.5 0.5)" fill="none" stroke="#596c68" stroke-width="1"/>
    </g>
  </g>
  <g id="Rectangle_2" data-name="Rectangle 2" fill="#fff" stroke="#707070" stroke-width="1">
    <rect width="1" height="1" stroke="none"/>
    <rect x="0.5" y="0.5" fill="none"/>
  </g>
</svg>
